{"glyphs":{":":{"x_min":0,"x_max":260,"ha":260,"o":"m 71 47 q 71 71 88 88 q 105 105 130 105 q 154 105 171 88 q 188 71 188 47 q 188 22 171 6 q 154 -10 130 -10 q 105 -10 88 6 q 71 22 71 47 z m 71 399 q 71 423 88 440 q 105 457 130 457 q 154 457 171 440 q 188 423 188 399 q 188 375 171 358 q 154 341 130 341 q 105 341 88 358 q 71 374 71 399 z"},"$":{"x_min":0,"x_max":476,"ha":476,"o":"m 210 630 q 170 626 146 601 q 122 576 122 536 q 122 470 210 415 z m 246 29 q 345 44 345 145 q 345 224 246 286 z m 69 175 q 79 116 114 76 q 154 30 210 27 l 210 311 q 136 354 102 392 q 51 446 51 512 q 51 577 99 618 q 141 654 209 659 l 210 730 l 246 730 l 246 659 q 322 654 398 620 l 398 479 l 379 479 q 357 620 246 630 l 246 390 q 328 344 367 302 q 423 243 423 168 q 423 93 371 47 q 323 5 246 -1 l 246 -81 l 210 -81 l 210 -5 q 119 0 49 34 l 49 175 z"},"?":{"x_min":0,"x_max":469,"ha":469,"o":"m 168 45 q 168 68 185 85 q 202 102 226 102 q 250 102 266 86 q 283 69 283 45 q 283 21 266 6 q 249 -10 226 -10 q 201 -10 184 6 q 168 21 168 45 z m 215 177 q 215 251 269 359 l 272 365 l 274 370 q 317 465 317 522 q 317 576 293 609 q 265 646 213 646 q 185 646 160 633 q 130 616 130 590 q 130 581 145 554 q 160 527 160 510 q 160 468 117 468 q 91 468 78 489 q 65 506 65 533 q 65 596 120 638 q 171 677 235 677 q 308 677 358 635 q 409 590 409 518 q 409 439 300 318 l 296 313 q 244 255 238 177 z"},"<":{"x_min":0,"x_max":793,"ha":793,"o":"m 670 468 l 220 284 l 670 101 l 670 30 l 123 254 l 123 314 l 670 539 z"},"'":{"x_min":0,"x_max":164,"ha":164,"o":"m 74 400 l 42 613 q 42 615 41 617 q 40 622 40 625 q 40 628 40 630 q 40 680 82 680 q 124 680 124 632 q 124 629 124 624 q 123 620 122 613 l 90 400 z"},"=":{"x_min":0,"x_max":793,"ha":793,"o":"m 675 409 l 675 344 l 118 344 l 118 409 z m 675 224 l 675 159 l 118 159 l 118 224 z"},"a":{"x_min":0,"x_max":470,"ha":470,"o":"m 300 52 q 222 -8 153 -8 q 102 -8 74 19 q 43 47 43 97 q 43 174 137 226 q 181 251 297 287 l 297 339 q 297 388 283 410 q 265 435 219 435 q 192 435 170 423 q 144 408 144 383 q 144 378 146 368 q 148 357 148 351 q 148 310 104 310 q 59 310 59 357 q 59 407 120 435 q 169 458 223 458 q 379 458 379 312 l 379 91 q 379 46 406 46 q 425 46 445 64 l 457 50 q 414 -8 360 -8 q 315 -8 300 52 z m 297 262 q 126 203 126 122 q 126 87 148 62 q 169 38 204 38 q 266 38 297 90 z"},"L":{"x_min":0,"x_max":611,"ha":611,"o":"m 24 20 l 29 20 q 82 20 102 43 q 119 65 119 120 l 119 549 q 119 606 100 622 q 81 639 24 639 l 24 659 l 324 659 l 324 639 l 319 639 q 267 639 246 620 q 226 600 226 549 l 226 106 q 226 63 238 51 q 250 39 291 39 l 405 39 q 546 39 602 173 l 622 173 l 569 0 l 24 0 z"},"3":{"x_min":0,"x_max":476,"ha":476,"o":"m 146 349 q 214 357 258 395 q 308 439 308 503 q 308 549 277 576 q 246 602 201 602 q 110 602 54 504 l 38 516 q 103 671 241 671 q 297 671 340 639 q 385 603 385 548 q 385 474 294 396 q 422 355 422 225 q 422 117 340 50 q 264 -11 152 -11 q 112 -11 76 0 q 28 16 28 52 q 28 90 67 90 q 99 90 146 54 q 186 23 215 23 q 272 23 311 71 q 349 118 349 174 q 349 329 155 329 l 146 329 z"},";":{"x_min":0,"x_max":260,"ha":260,"o":"m 53 -147 q 159 -77 159 -15 q 159 3 141 3 q 136 3 126 2 q 117 0 111 0 q 59 0 59 50 q 59 104 121 104 q 199 104 199 14 q 199 -97 67 -163 z m 67 399 q 67 423 84 440 q 100 457 125 457 q 149 457 166 440 q 182 423 182 399 q 182 374 166 358 q 149 342 125 342 q 100 342 84 358 q 67 375 67 399 z"},"J":{"x_min":0,"x_max":418,"ha":418,"o":"m 396 640 q 368 639 350 634 q 331 629 320 618 q 310 608 306 590 q 301 571 301 543 l 301 190 q 301 -14 128 -14 q 83 -14 49 6 q 10 30 10 73 q 10 113 53 113 q 89 113 109 71 q 109 71 111 65 q 129 23 152 23 q 196 23 196 80 l 196 543 q 196 571 192 590 q 187 609 176 620 q 165 630 146 634 q 127 639 97 639 l 97 659 l 396 659 z"},"V":{"x_min":0,"x_max":730,"ha":730,"o":"m 128 521 l 364 -14 l 385 -14 l 632 540 q 653 586 665 603 q 689 637 722 639 l 722 659 l 523 659 l 524 639 q 541 638 553 636 q 565 634 572 632 q 599 623 599 597 q 599 578 580 536 l 405 150 q 214 564 214 601 q 214 625 244 633 q 254 636 293 639 l 293 659 l 14 659 l 14 639 q 57 638 87 599 q 105 575 128 521 z"},"\"":{"x_min":0,"x_max":319,"ha":319,"o":"m 74 400 l 90 400 l 123 613 q 124 617 124 630 q 124 680 82 680 q 40 680 40 632 q 40 629 40 624 q 41 620 42 613 z m 229 400 l 245 400 l 277 613 q 278 618 278 632 q 278 680 236 680 q 195 680 195 630 q 195 618 196 613 z"},"7":{"x_min":0,"x_max":476,"ha":476,"o":"m 88 659 l 456 659 l 230 -11 l 170 -11 l 372 578 l 172 578 q 116 578 93 562 q 69 547 48 497 l 26 497 z"},"S":{"x_min":0,"x_max":521,"ha":521,"o":"m 35 199 l 55 199 q 86 124 130 78 q 187 19 254 19 q 280 19 302 28 q 325 36 342 52 q 359 68 368 89 q 378 110 378 136 q 378 173 354 205 q 343 219 325 234 q 307 250 281 266 l 178 328 q 111 368 82 408 q 53 449 53 503 q 53 582 111 630 q 164 673 247 673 q 276 673 324 658 q 372 643 385 643 q 405 643 410 673 l 427 673 l 449 474 l 429 474 q 371 640 252 640 q 207 640 175 614 q 142 587 142 541 q 142 475 236 420 l 350 352 q 413 315 441 280 q 477 233 477 171 q 477 82 415 31 q 358 -14 266 -14 q 239 -14 190 -2 q 140 10 120 10 q 93 10 89 -12 l 71 -12 z"},"}":{"x_min":0,"x_max":476,"ha":476,"o":"m 87 705 q 185 705 223 673 q 266 639 266 543 l 266 448 q 266 373 293 345 q 319 318 394 310 l 394 281 q 320 275 293 246 q 266 217 266 144 l 266 48 q 266 -47 223 -81 q 185 -112 87 -112 l 82 -112 l 82 -88 q 149 -86 171 -59 q 191 -33 191 33 l 191 99 q 191 192 211 230 q 237 278 320 295 q 237 311 212 361 q 191 398 191 491 l 191 557 q 191 625 171 651 q 149 678 82 680 l 82 705 z"},"Z":{"x_min":0,"x_max":678,"ha":678,"o":"m 474 617 l 267 617 q 174 617 140 596 q 95 570 83 485 l 63 485 l 75 659 l 633 659 l 178 41 l 418 41 q 519 41 565 64 q 623 95 646 184 l 666 184 l 632 0 l 21 0 z"},"x":{"x_min":0,"x_max":421,"ha":421,"o":"m -14 18 l -9 18 q 25 18 72 83 l 170 217 l 65 383 q 36 428 -8 430 l -8 448 l 205 448 l 205 430 q 156 427 156 408 q 156 395 167 378 l 223 289 l 276 361 q 292 383 292 400 q 292 430 246 430 l 246 448 l 419 448 l 419 430 q 364 428 306 346 l 242 259 l 363 70 q 396 18 425 18 l 428 18 l 428 0 l 219 0 l 219 18 q 273 18 273 40 q 273 55 263 71 l 190 188 l 119 89 q 98 59 98 40 q 98 18 134 18 l 142 18 l 142 0 l -14 0 z"},")":{"x_min":0,"x_max":365,"ha":365,"o":"m 50 703 q 306 516 306 231 q 306 76 240 -39 q 178 -150 49 -243 l 33 -226 q 136 -144 177 -24 q 211 72 211 224 q 211 379 177 478 q 137 596 35 689 z"},"&":{"x_min":0,"x_max":780,"ha":780,"o":"m 432 81 q 523 -12 594 -12 q 673 -12 747 90 l 735 105 q 694 55 649 55 q 581 55 493 152 q 542 211 592 304 q 608 332 608 333 l 610 337 q 656 408 700 410 l 700 430 l 508 430 l 508 410 q 563 406 563 368 q 563 296 473 178 q 431 232 398 284 q 365 335 340 386 q 493 464 493 563 q 493 670 373 670 q 305 670 260 625 q 216 579 216 510 q 216 453 247 372 q 46 274 46 145 q 46 71 96 27 q 144 -12 220 -12 q 336 -12 432 81 z m 413 103 q 348 40 283 40 q 220 40 180 86 q 141 129 141 193 q 141 287 259 345 q 305 232 413 103 z m 328 412 q 296 494 296 552 q 296 642 373 642 q 445 642 445 561 q 445 470 328 412 z"},"_":{"x_min":0,"x_max":476,"ha":476,"o":"m 476 -157 l 476 -224 l 0 -224 l 0 -157 z"},"v":{"x_min":0,"x_max":431,"ha":431,"o":"m 39 366 q 12 430 -18 430 l -20 430 l -20 448 l 182 448 l 182 430 q 122 430 122 394 q 122 381 130 360 l 232 117 l 327 355 q 341 391 341 401 q 341 428 288 430 l 287 448 l 430 448 l 430 430 q 408 429 394 410 q 389 402 375 370 l 218 -10 l 203 -10 z"},"O":{"x_min":0,"x_max":771,"ha":771,"o":"m 45 330 q 45 484 137 579 q 230 673 385 673 q 541 673 634 579 q 727 484 727 330 q 727 174 634 80 q 541 -14 385 -14 q 230 -14 137 80 q 45 175 45 330 z m 158 330 q 158 204 208 121 q 269 21 385 21 q 503 21 563 121 q 613 204 613 330 q 613 455 563 538 q 501 637 385 637 q 269 637 208 537 q 158 454 158 330 z"},"(":{"x_min":0,"x_max":365,"ha":365,"o":"m 315 -243 q 59 -53 59 230 q 59 384 124 500 q 186 610 316 703 l 331 688 q 230 605 188 485 q 153 386 153 236 q 153 85 188 -17 q 228 -135 330 -228 z"},"C":{"x_min":0,"x_max":674,"ha":674,"o":"m 668 135 q 560 -14 388 -14 q 233 -14 138 78 q 44 169 44 325 q 44 478 142 576 q 239 673 393 673 q 438 673 504 654 q 570 635 584 635 q 616 635 616 669 l 634 669 l 653 455 l 633 455 q 577 638 410 638 q 287 638 218 542 q 157 459 157 330 q 157 206 218 121 q 287 26 405 26 q 547 26 651 152 z"},"W":{"x_min":0,"x_max":938,"ha":938,"o":"m 107 533 l 311 -14 l 330 -14 l 482 404 l 640 -14 l 660 -14 l 855 539 q 863 562 870 577 q 876 592 881 600 q 902 635 931 640 l 931 659 l 759 659 l 759 639 q 822 631 822 601 q 822 579 808 537 l 676 176 l 539 540 q 522 586 522 607 q 522 631 599 639 l 599 659 l 330 659 l 330 639 q 350 637 364 634 q 378 630 388 622 q 398 614 406 601 q 413 588 421 569 l 459 468 l 350 176 l 207 561 q 195 589 195 604 q 195 627 220 634 q 233 638 262 639 l 262 659 l 10 659 l 10 639 q 48 638 74 602 q 87 582 107 533 z"},"A":{"x_min":0,"x_max":732,"ha":732,"o":"m -4 20 l -4 0 l 211 0 l 211 20 l 206 20 q 134 20 134 60 q 134 79 150 112 l 196 217 l 478 217 l 533 92 q 540 79 540 63 q 540 21 467 20 l 467 0 l 741 0 l 741 19 q 707 19 688 35 q 666 54 648 94 l 385 670 l 363 670 l 92 105 q 72 62 56 46 q 32 20 -4 20 z m 463 255 l 211 255 l 342 531 z"},"f":{"x_min":0,"x_max":312,"ha":312,"o":"m 18 20 q 66 21 81 32 q 99 45 99 91 l 99 413 l 19 413 l 19 448 l 99 448 l 99 463 q 99 554 131 610 q 171 679 257 679 q 292 679 318 664 q 350 646 350 613 q 350 574 314 574 q 286 574 270 616 q 256 649 230 649 q 198 649 188 619 q 182 601 182 562 l 182 448 l 297 448 l 297 413 l 182 413 l 182 110 q 182 50 206 34 q 224 22 288 20 l 289 0 l 18 0 z"},"Q":{"x_min":0,"x_max":771,"ha":771,"o":"m 158 330 q 158 204 208 121 q 269 21 385 21 q 503 21 563 121 q 613 204 613 330 q 613 455 563 538 q 501 637 385 637 q 269 637 208 537 q 158 454 158 330 z m 301 -7 q 45 66 45 330 q 45 484 137 579 q 230 673 385 673 q 541 673 634 579 q 727 484 727 330 q 727 110 550 23 q 545 21 536 17 q 528 13 515 8 q 491 -1 491 -8 q 491 -34 588 -53 q 621 -60 650 -64 q 680 -68 706 -69 l 705 -89 q 655 -92 621 -92 q 444 -92 301 -7 z"},"w":{"x_min":0,"x_max":643,"ha":643,"o":"m 30 375 q 11 430 -19 430 l -23 430 l -23 448 l 154 448 l 154 430 l 147 430 q 115 430 115 398 q 115 385 126 358 l 217 126 l 298 315 l 272 380 q 267 394 261 404 q 255 413 250 418 q 236 428 208 430 l 207 448 l 417 448 l 417 430 l 409 430 q 360 430 360 397 q 360 381 369 359 l 459 133 l 540 344 q 555 383 555 403 q 555 421 538 427 q 531 428 504 430 l 503 448 l 638 448 l 638 430 q 610 426 588 366 l 445 -10 l 430 -10 l 317 270 l 198 -10 l 182 -10 z"},"-":{"x_min":0,"x_max":314,"ha":314,"o":"m 41 264 l 272 264 l 272 192 l 41 192 z"},"E":{"x_min":0,"x_max":663,"ha":663,"o":"m 21 20 q 78 22 96 37 q 118 53 118 108 l 118 550 q 118 603 96 621 q 77 637 21 640 l 21 659 l 584 659 l 593 513 l 573 513 q 562 578 532 600 q 505 621 437 621 l 270 621 q 240 621 232 613 q 223 605 223 574 l 223 397 q 223 377 228 371 q 234 365 254 365 l 385 365 q 452 365 477 379 q 509 399 512 458 l 532 458 l 532 231 l 512 231 q 508 294 478 313 q 454 328 385 328 l 253 328 q 234 328 228 322 q 223 316 223 296 l 223 99 q 223 65 230 55 q 241 41 270 41 l 424 41 q 512 41 554 65 q 600 92 631 170 l 650 162 l 598 0 l 21 0 z"},"s":{"x_min":0,"x_max":364,"ha":364,"o":"m 36 151 l 54 151 q 88 13 186 13 q 221 13 244 32 q 267 52 267 87 q 267 132 201 170 l 116 218 q 34 264 34 339 q 34 394 73 429 q 110 462 168 462 q 188 462 221 453 q 254 444 261 444 q 274 444 280 461 l 295 461 l 302 325 l 284 325 q 263 436 174 436 q 143 436 124 420 q 101 403 101 374 q 101 328 167 292 l 250 247 q 334 200 334 123 q 334 63 295 27 q 256 -9 196 -9 q 175 -9 136 0 q 99 10 80 10 q 60 10 57 -5 l 42 -5 z"},">":{"x_min":0,"x_max":793,"ha":793,"o":"m 670 314 l 670 254 l 123 30 l 123 101 l 574 284 l 123 468 l 123 539 z"},"l":{"x_min":0,"x_max":259,"ha":259,"o":"m 19 18 q 40 19 54 22 q 67 26 74 34 q 82 43 85 57 q 88 71 88 92 l 88 562 q 88 600 81 610 q 72 624 39 624 l 24 624 l 24 642 q 50 646 86 658 q 123 669 171 688 l 171 89 q 171 48 184 34 q 198 19 237 18 l 237 0 l 19 0 z"},"8":{"x_min":0,"x_max":476,"ha":476,"o":"m 200 322 q 106 271 106 155 q 106 125 116 99 q 126 73 144 54 q 162 35 187 24 q 212 13 242 13 q 300 13 332 46 q 365 79 365 136 q 365 190 305 246 q 291 259 264 278 q 238 297 200 322 z m 177 333 q 59 409 59 502 q 59 580 113 627 q 165 671 244 671 q 317 671 363 640 q 418 604 418 534 q 418 476 378 433 q 348 401 285 370 q 357 322 389 287 q 439 231 439 168 q 439 85 375 34 q 317 -12 230 -12 q 151 -12 96 29 q 37 76 37 154 q 37 268 177 333 z m 266 382 q 355 441 355 530 q 355 584 325 616 q 295 648 240 648 q 191 648 158 618 q 126 589 126 541 q 126 491 174 446 q 188 433 211 418 q 234 402 266 382 z"},"\\":{"x_min":0,"x_max":259,"ha":259,"o":"m 227 -88 l -9 673 l 32 673 l 269 -88 z"},"e":{"x_min":0,"x_max":470,"ha":470,"o":"m 295 310 q 308 310 314 312 q 321 315 321 328 q 321 371 294 400 q 267 430 225 430 q 123 430 110 310 z m 440 158 q 362 -10 227 -10 q 135 -10 83 57 q 35 120 35 213 q 35 318 87 385 q 144 460 244 460 q 321 460 368 410 q 412 362 416 283 l 108 283 l 108 272 q 108 186 145 130 q 188 64 270 64 q 360 64 423 168 z"},"b":{"x_min":0,"x_max":505,"ha":505,"o":"m 64 46 l 64 531 q 64 587 57 600 q 45 626 0 626 l 0 642 q 72 655 147 687 l 147 396 q 223 462 298 462 q 376 462 424 399 q 467 341 467 261 q 467 147 402 73 q 334 -5 223 -5 q 142 -5 64 46 z m 147 94 q 147 57 180 38 q 208 22 249 22 q 321 22 355 89 q 382 140 382 219 q 382 291 350 344 q 313 405 245 405 q 205 405 179 389 q 147 369 147 333 z"},"%":{"x_min":0,"x_max":895,"ha":895,"o":"m 624 620 l 193 -29 l 233 -29 l 711 690 l 671 690 q 597 600 488 600 q 440 600 390 626 q 350 672 295 672 q 216 672 143 591 q 69 508 69 418 q 69 360 101 328 q 133 295 190 295 q 279 295 343 386 q 405 475 405 559 q 405 573 402 594 q 439 576 490 576 q 560 576 624 620 z m 493 110 q 493 53 525 22 q 557 -10 614 -10 q 700 -10 760 66 q 830 157 830 247 q 830 300 802 331 q 772 364 720 364 q 633 364 560 273 q 493 193 493 110 z m 736 333 q 770 333 788 305 q 802 280 802 246 q 802 156 732 76 q 680 15 622 15 q 559 15 559 78 q 559 136 621 234 q 635 257 647 273 q 659 289 668 299 q 699 333 736 333 z m 372 603 q 378 580 378 558 q 378 489 326 410 q 267 324 201 324 q 133 324 133 385 q 133 458 207 562 q 262 640 302 640 q 310 640 311 639 q 339 619 372 603 z"},"m":{"x_min":0,"x_max":781,"ha":781,"o":"m 762 0 l 543 0 l 543 18 q 586 19 598 27 q 614 37 614 77 l 614 320 q 614 399 533 399 q 486 399 433 350 l 433 83 q 433 42 446 30 q 460 18 501 18 l 501 0 l 279 0 l 280 18 q 318 20 330 27 q 350 38 350 70 l 350 317 q 350 399 274 399 q 226 399 170 349 l 170 76 q 170 40 185 28 q 198 20 237 18 l 237 0 l 19 0 l 19 18 q 57 20 72 32 q 86 44 86 80 l 86 323 q 86 364 78 378 q 67 395 29 395 l 19 395 l 19 413 q 104 428 170 462 l 170 383 q 249 459 317 459 q 399 459 425 381 q 522 459 580 459 q 649 459 677 413 q 698 378 698 303 l 698 92 q 698 45 707 33 q 717 20 762 18 z"},"#":{"x_min":0,"x_max":732,"ha":732,"o":"m 425 678 l 353 678 l 278 466 l 123 466 l 99 402 l 255 402 l 210 273 l 65 273 l 41 209 l 187 209 l 112 -1 l 184 -1 l 259 209 l 389 209 l 313 -1 l 385 -1 l 461 209 l 610 209 l 632 273 l 483 273 l 529 402 l 669 402 l 691 466 l 551 466 l 627 678 l 554 678 l 479 466 l 350 466 z m 281 273 l 326 402 l 457 402 l 412 273 z"},",":{"x_min":0,"x_max":238,"ha":238,"o":"m 41 -147 q 146 -77 146 -15 q 146 3 128 3 q 123 3 114 2 q 104 0 99 0 q 47 0 47 50 q 47 105 109 105 q 187 105 187 14 q 187 -96 53 -162 z"},"n":{"x_min":0,"x_max":522,"ha":522,"o":"m 20 18 q 41 19 54 22 q 68 26 76 34 q 83 43 86 57 q 89 71 89 92 l 89 333 q 89 372 82 382 q 73 395 38 395 l 20 395 l 20 413 q 72 421 172 462 l 172 386 q 251 459 326 459 q 397 459 423 403 q 440 364 440 282 l 440 77 q 440 44 454 32 q 468 19 502 18 l 502 0 l 286 0 l 287 18 q 328 20 341 31 q 357 44 357 83 l 357 283 q 357 339 344 364 q 324 402 276 402 q 218 402 172 351 l 172 89 q 172 48 186 34 q 199 19 238 18 l 238 0 l 20 0 z"},"h":{"x_min":0,"x_max":522,"ha":522,"o":"m 20 18 q 41 19 54 22 q 68 26 76 34 q 83 43 86 57 q 89 71 89 92 l 89 562 q 89 600 82 610 q 74 624 41 624 l 25 624 l 25 642 q 50 646 86 658 q 123 669 172 688 l 172 386 q 252 459 321 459 q 396 459 422 405 q 440 369 440 282 l 440 77 q 440 44 454 32 q 468 19 502 18 l 502 0 l 286 0 l 287 18 q 328 20 341 31 q 357 44 357 83 l 357 283 q 357 339 344 364 q 324 402 276 402 q 218 402 172 351 l 172 89 q 172 48 186 34 q 199 19 238 18 l 238 0 l 20 0 z"},"z":{"x_min":0,"x_max":415,"ha":415,"o":"m 11 21 l 285 414 l 159 414 q 109 414 87 393 q 66 373 54 324 l 37 324 l 45 448 l 396 448 l 396 440 l 118 37 l 262 37 q 316 37 342 58 q 367 79 373 133 l 391 133 l 380 0 l 11 0 z"},"B":{"x_min":0,"x_max":650,"ha":650,"o":"m 23 20 q 80 22 98 37 q 120 53 120 108 l 120 550 q 120 603 98 621 q 79 637 23 640 l 23 659 l 339 659 q 438 659 500 628 q 583 587 583 499 q 583 389 452 350 q 613 318 613 189 q 613 0 322 0 l 23 0 z m 225 86 q 225 51 248 43 q 260 38 302 38 l 323 38 q 500 38 500 184 q 500 328 303 328 l 266 328 q 241 328 233 323 q 225 317 225 293 z m 225 400 q 225 372 229 367 q 235 360 260 360 l 275 360 q 369 360 413 382 q 477 413 477 494 q 477 569 424 601 q 384 626 300 626 q 255 626 243 621 q 225 612 225 574 z"},"K":{"x_min":0,"x_max":705,"ha":705,"o":"m 24 20 l 32 20 q 81 20 100 40 q 120 59 120 107 l 120 543 q 120 571 116 590 q 111 608 100 619 q 90 630 72 634 q 53 639 25 639 l 25 659 l 320 659 l 320 640 q 291 639 273 634 q 255 629 244 618 q 233 608 229 590 q 225 571 225 543 l 225 342 q 239 342 257 360 l 421 523 q 481 583 481 608 q 481 636 414 640 l 414 659 l 671 659 l 671 640 q 588 639 508 556 l 330 373 l 617 83 q 679 21 726 20 l 727 0 l 419 0 l 419 20 q 459 23 462 24 q 492 30 492 49 q 492 63 467 89 l 260 300 q 260 300 260 300 q 260 301 259 302 q 246 315 232 315 q 231 315 228 314 q 226 314 225 314 l 225 104 q 225 54 246 36 q 265 21 317 20 l 317 0 l 24 0 z"},"R":{"x_min":0,"x_max":732,"ha":732,"o":"m 34 20 l 47 20 q 97 20 116 41 q 134 62 134 113 l 134 556 q 134 608 109 624 q 89 637 34 639 l 34 659 l 369 659 q 597 659 597 489 q 597 357 434 320 q 528 200 566 155 q 678 25 718 20 l 718 0 l 569 0 q 508 66 446 140 q 385 215 322 300 l 262 300 q 236 300 236 276 l 236 113 q 236 60 256 40 q 277 20 330 20 l 339 20 l 339 0 l 34 0 z m 236 359 q 236 334 262 334 q 361 334 415 360 q 488 394 488 484 q 488 563 432 598 q 389 623 302 623 q 261 623 251 617 q 236 606 236 571 z"},"T":{"x_min":0,"x_max":627,"ha":627,"o":"m 164 20 l 164 0 l 470 0 l 469 20 q 404 22 387 40 q 369 59 369 125 l 369 591 q 369 614 380 619 q 386 621 413 621 q 505 621 534 600 q 569 576 572 490 l 591 490 l 588 659 l 46 659 l 41 490 l 60 490 q 62 570 94 597 q 124 621 207 621 l 223 621 q 249 621 254 618 q 264 614 264 591 l 264 121 q 264 58 245 39 q 226 20 164 20 z"},"P":{"x_min":0,"x_max":575,"ha":575,"o":"m 24 20 q 82 20 102 44 q 117 63 117 128 l 117 555 q 117 607 96 624 q 79 637 24 639 l 24 659 l 312 659 q 546 659 546 489 q 546 365 441 325 q 379 301 249 301 l 239 301 q 222 301 222 283 l 222 128 q 222 63 239 43 q 256 22 320 20 l 320 0 l 24 0 z m 222 366 q 222 335 259 335 q 437 335 437 483 q 437 623 278 623 q 244 623 233 612 q 222 601 222 568 z"},"|":{"x_min":0,"x_max":476,"ha":476,"o":"m 273 728 l 273 -224 l 204 -224 l 204 728 z"},"t":{"x_min":0,"x_max":310,"ha":310,"o":"m 20 427 q 109 479 153 583 l 171 583 l 171 448 l 278 448 l 278 414 l 171 414 l 171 112 q 171 46 217 46 q 250 46 282 78 l 294 65 q 241 -9 174 -9 q 88 -9 88 93 l 88 414 l 20 414 z"},"M":{"x_min":0,"x_max":901,"ha":901,"o":"m 31 20 l 31 0 l 259 0 l 259 20 q 199 22 182 46 q 167 65 167 128 l 167 548 l 416 0 l 435 0 l 683 548 l 683 117 q 683 61 666 41 q 649 23 593 20 l 593 0 l 876 0 l 876 20 q 818 25 802 42 q 786 59 786 117 l 786 542 q 786 600 802 619 q 818 638 876 640 l 876 659 l 686 659 l 456 155 l 224 659 l 31 659 l 31 639 q 89 634 105 615 q 120 595 120 537 l 120 134 q 120 74 106 51 q 87 20 31 20 z"},"g":{"x_min":0,"x_max":464,"ha":464,"o":"m 141 330 q 141 271 158 226 q 182 165 232 165 q 304 165 304 253 q 304 314 288 362 q 264 431 216 431 q 141 431 141 330 z m 95 -6 q 58 16 58 50 q 58 87 132 153 q 57 196 57 286 q 57 323 69 355 q 81 387 102 410 q 124 432 154 445 q 185 458 223 458 q 285 458 332 424 l 444 424 l 444 385 l 363 385 q 386 347 386 302 q 386 264 373 234 q 360 203 337 182 q 314 160 282 148 q 251 136 213 136 q 194 136 156 144 q 126 118 126 93 q 126 62 185 60 q 190 60 198 60 q 207 60 220 59 q 347 53 384 43 q 447 25 447 -41 q 447 -129 353 -178 q 279 -218 182 -218 q 19 -218 19 -123 q 19 -76 95 -6 z m 122 -13 q 77 -51 77 -87 q 77 -170 230 -170 q 286 -170 337 -149 q 404 -121 404 -72 q 404 -24 246 -19 q 162 -16 122 -13 z"},"j":{"x_min":0,"x_max":254,"ha":254,"o":"m 16 405 q 86 423 172 462 l 172 -12 q 172 -94 144 -150 q 106 -225 34 -225 q 3 -225 -19 -210 q -47 -192 -47 -164 q -47 -127 -9 -127 q 16 -127 25 -149 q 29 -158 33 -167 q 37 -176 41 -186 q 48 -193 57 -193 q 89 -193 89 -134 l 89 308 q 89 352 82 365 q 71 388 35 388 q 30 388 25 388 q 20 388 16 387 z m 77 630 q 77 652 93 668 q 109 683 130 683 q 153 683 168 668 q 184 652 184 630 q 184 609 168 594 q 152 578 130 578 q 110 578 94 594 q 77 609 77 630 z"},"i":{"x_min":0,"x_max":261,"ha":261,"o":"m 87 630 q 87 653 102 668 q 117 683 140 683 q 162 683 178 668 q 193 653 193 630 q 193 608 178 592 q 162 577 140 577 q 118 577 102 592 q 87 608 87 630 z m 24 18 q 45 19 58 22 q 72 26 80 34 q 87 43 90 57 q 92 71 92 92 l 92 338 q 92 374 87 386 q 78 400 45 400 l 30 400 l 30 418 q 55 422 92 432 q 128 443 177 462 l 177 89 q 177 47 189 34 q 202 19 242 18 l 242 0 l 24 0 z"},"y":{"x_min":0,"x_max":424,"ha":424,"o":"m 35 381 l 200 -5 l 191 -25 q 139 -146 102 -146 q 96 -146 75 -137 q 54 -129 41 -129 q -2 -129 -2 -173 q -2 -223 59 -223 q 125 -223 174 -144 q 198 -106 233 -8 l 369 361 q 380 393 387 405 q 402 430 424 430 l 425 430 l 425 448 l 282 448 l 282 430 l 290 430 q 333 430 333 402 q 333 389 322 353 l 239 110 l 142 350 q 128 384 128 402 q 128 430 172 430 l 183 430 l 183 448 l -20 448 l -20 430 l -11 430 q 14 430 35 381 z"},"@":{"x_min":0,"x_max":939,"ha":939,"o":"m 513 447 q 465 447 425 386 q 353 278 353 171 q 353 137 369 112 q 386 83 419 83 q 479 83 528 165 q 584 260 584 351 q 584 391 568 416 q 549 447 513 447 z m 551 154 q 495 58 409 58 q 343 58 309 106 q 277 150 277 215 q 277 321 365 406 q 429 469 505 469 q 589 469 609 380 l 632 461 l 706 461 l 626 176 q 626 176 624 170 q 617 146 617 130 q 617 81 659 81 q 694 81 738 114 q 850 199 850 369 q 850 493 752 576 q 664 650 529 650 q 358 650 245 538 q 127 421 127 238 q 127 76 236 -15 q 342 -104 497 -104 q 655 -104 789 -8 l 804 -27 q 666 -129 498 -129 q 322 -129 210 -46 q 66 62 66 250 q 66 442 223 572 q 348 676 519 676 q 672 676 770 595 q 874 508 874 356 q 874 201 770 108 q 714 57 649 57 q 558 57 551 154 z"},".":{"x_min":0,"x_max":238,"ha":238,"o":"m 61 47 q 61 71 78 88 q 94 105 119 105 q 144 105 160 88 q 177 71 177 47 q 177 22 160 6 q 143 -10 119 -10 q 95 -10 78 6 q 61 22 61 47 z"},"p":{"x_min":0,"x_max":521,"ha":521,"o":"m 78 325 q 78 360 68 373 q 58 386 22 386 l 12 386 l 12 405 q 102 432 161 462 l 161 383 q 241 457 308 457 q 396 457 444 391 q 487 333 487 242 q 487 136 433 66 q 375 -10 272 -10 q 207 -10 161 23 l 161 -135 q 161 -180 177 -193 q 190 -207 237 -208 l 237 -226 l 10 -226 l 10 -208 q 31 -207 44 -204 q 57 -200 64 -192 q 72 -183 75 -170 q 78 -156 78 -135 z m 161 80 q 203 19 270 19 q 338 19 373 84 q 401 134 401 210 q 401 281 372 334 q 336 397 270 397 q 217 397 161 341 z"},"X":{"x_min":0,"x_max":732,"ha":732,"o":"m 11 20 q 63 20 119 86 l 322 328 l 154 553 q 123 596 104 612 q 72 639 33 639 l 24 639 l 24 659 l 324 659 l 324 639 l 316 639 q 250 639 250 613 q 250 601 267 575 l 389 409 l 510 553 q 539 590 539 612 q 539 638 469 639 l 469 659 l 711 659 l 711 639 l 700 639 q 637 639 574 566 l 410 374 l 611 97 q 664 25 729 20 l 729 0 l 424 0 l 424 20 q 446 22 458 22 q 470 23 473 24 q 505 32 505 53 q 505 69 474 112 l 346 294 l 204 122 q 162 71 162 50 q 162 21 234 20 l 234 0 l 11 0 z"},"*":{"x_min":0,"x_max":476,"ha":476,"o":"m 229 501 q 211 491 169 449 q 129 411 118 411 q 86 411 86 444 q 86 472 119 480 q 124 480 129 481 q 178 487 224 513 q 188 537 132 546 q 130 547 120 549 q 86 555 86 586 q 86 617 116 617 q 138 617 164 584 l 168 580 q 190 551 225 529 q 226 528 227 528 q 228 527 229 526 l 230 538 q 231 567 217 608 q 205 642 205 650 q 205 683 239 683 q 270 683 270 650 q 270 637 257 601 q 245 563 245 541 q 245 529 246 526 q 254 530 270 543 q 285 556 308 578 q 348 616 359 616 q 372 616 381 606 q 390 595 390 582 q 390 554 331 543 q 330 542 327 542 q 308 538 290 531 q 271 524 253 513 q 273 500 294 492 q 314 484 336 482 q 390 474 390 444 q 390 410 358 410 q 345 410 306 450 q 262 493 246 501 l 246 489 q 246 465 258 426 q 270 387 270 376 q 270 343 237 343 q 205 343 205 378 q 205 385 217 423 q 230 461 230 487 q 230 489 230 494 q 229 499 229 501 z"},"Y":{"x_min":0,"x_max":730,"ha":730,"o":"m 235 20 l 235 0 l 535 0 l 535 20 q 483 22 464 33 q 437 49 437 95 l 437 295 l 612 560 q 637 596 655 613 q 683 638 717 639 l 717 659 l 510 659 l 510 639 q 582 631 582 608 q 582 597 550 548 l 417 343 l 258 570 q 241 596 241 610 q 241 632 318 640 l 318 659 l 13 659 l 13 639 q 79 636 115 586 l 331 285 l 331 103 q 331 56 309 37 q 289 20 240 20 z"},"c":{"x_min":0,"x_max":418,"ha":418,"o":"m 411 145 q 333 -10 214 -10 q 126 -10 74 60 q 27 125 27 215 q 27 321 85 389 q 147 463 249 463 q 303 463 343 441 q 392 414 392 365 q 392 319 345 319 q 307 319 297 371 q 286 431 231 431 q 169 431 135 371 q 107 322 107 255 q 107 179 141 124 q 182 62 255 62 q 337 62 396 155 z"},"!":{"x_min":0,"x_max":310,"ha":310,"o":"m 105 560 l 144 175 l 164 175 l 208 560 q 209 573 210 585 q 210 597 210 608 q 210 673 156 673 q 102 673 102 606 q 102 588 105 560 z m 98 42 q 98 18 114 2 q 131 -14 155 -14 q 179 -14 195 2 q 211 18 211 42 q 211 66 196 82 q 180 99 155 99 q 131 99 114 82 q 98 66 98 42 z"},"/":{"x_min":0,"x_max":259,"ha":259,"o":"m 269 673 l 32 -88 l -9 -88 l 227 673 z"},"[":{"x_min":0,"x_max":311,"ha":311,"o":"m 75 688 l 279 688 l 279 660 l 247 660 q 189 660 173 644 q 155 627 155 570 l 155 -117 q 155 -172 177 -187 q 194 -198 253 -198 l 279 -198 l 279 -226 l 75 -226 z"},"6":{"x_min":0,"x_max":476,"ha":476,"o":"m 134 334 q 125 278 125 233 q 125 146 147 92 q 178 10 250 10 q 309 10 336 70 q 355 112 355 179 q 355 261 330 312 q 298 384 227 384 q 175 384 134 334 z m 423 650 q 191 617 143 377 q 201 421 266 421 q 352 421 400 356 q 444 297 444 209 q 444 118 393 55 q 339 -11 250 -11 q 143 -11 87 66 q 38 134 38 247 q 38 433 138 543 q 238 654 423 671 z"},"r":{"x_min":0,"x_max":365,"ha":365,"o":"m 21 0 l 21 18 q 64 21 80 38 q 96 54 96 97 l 96 329 q 96 366 87 380 q 75 394 39 394 l 24 394 l 24 412 q 75 426 114 438 q 152 451 180 462 l 180 372 q 246 458 297 458 q 320 458 336 445 q 351 432 351 410 q 351 365 313 365 q 297 365 277 378 q 255 392 250 392 q 222 392 180 331 l 180 89 q 180 46 200 31 q 218 19 262 18 l 262 0 z"},"2":{"x_min":0,"x_max":476,"ha":476,"o":"m 29 18 l 144 146 q 332 354 332 454 q 332 520 299 559 q 263 600 199 600 q 92 600 50 476 l 30 480 q 71 671 242 671 q 321 671 368 626 q 414 580 414 502 q 414 430 363 352 q 333 307 261 229 l 118 75 l 303 75 q 365 75 389 85 q 423 100 444 148 l 463 142 l 408 0 l 29 0 z"},"{":{"x_min":0,"x_max":476,"ha":476,"o":"m 394 680 q 327 678 305 651 q 285 625 285 557 l 285 491 q 285 398 264 361 q 238 311 156 295 q 239 278 265 230 q 285 192 285 99 l 285 33 q 285 -33 305 -59 q 327 -86 394 -88 l 394 -112 l 390 -112 q 291 -112 254 -81 q 211 -47 211 48 l 211 144 q 211 217 184 246 q 157 275 83 281 l 83 310 q 158 318 184 345 q 211 373 211 448 l 211 543 q 211 639 254 673 q 292 705 390 705 l 394 705 z"},"9":{"x_min":0,"x_max":476,"ha":476,"o":"m 345 325 q 354 374 354 425 q 354 513 332 567 q 300 648 229 648 q 124 648 124 480 q 124 400 149 347 q 180 275 251 275 q 304 275 345 325 z m 56 9 q 288 42 336 282 q 278 238 212 238 q 127 238 79 303 q 35 362 35 450 q 35 541 86 604 q 140 671 229 671 q 337 671 392 592 q 441 524 441 411 q 441 228 340 115 q 239 4 56 -11 z"}," ":{"x_min":0,"x_max":218,"ha":218,"o":""},"I":{"x_min":0,"x_max":363,"ha":363,"o":"m 31 20 q 88 22 106 37 q 128 55 128 109 l 128 550 q 128 603 106 621 q 86 637 31 639 l 31 659 l 331 659 l 331 639 q 277 638 257 621 q 234 603 234 550 l 234 109 q 234 56 257 38 q 277 21 331 20 l 331 0 l 31 0 z"},"H":{"x_min":0,"x_max":780,"ha":780,"o":"m 23 20 q 80 22 98 37 q 120 55 120 109 l 120 550 q 120 603 97 621 q 76 639 23 640 l 23 659 l 321 659 l 321 640 q 266 637 247 621 q 225 603 225 550 l 225 386 q 225 356 254 356 l 534 356 q 551 356 556 364 q 560 369 560 389 l 560 550 q 560 603 537 621 q 517 638 463 639 l 463 659 l 761 659 l 761 639 q 707 638 687 621 q 665 603 665 550 l 665 109 q 665 56 688 38 q 708 21 761 20 l 761 0 l 463 0 l 463 20 q 519 22 537 37 q 560 55 560 108 l 560 289 q 560 319 534 319 l 253 319 q 225 319 225 289 l 225 109 q 225 56 247 37 q 265 22 321 20 l 321 0 l 23 0 z"},"4":{"x_min":0,"x_max":476,"ha":476,"o":"m 282 232 l 282 566 l 59 232 z m 282 168 l 24 168 l 24 241 l 312 671 l 355 671 l 355 232 l 448 232 l 448 168 l 355 168 l 355 0 l 282 0 z"},"~":{"x_min":0,"x_max":793,"ha":793,"o":"m 711 286 q 616 220 530 220 q 487 220 411 247 l 389 255 q 306 283 262 283 q 187 283 83 210 l 83 282 q 180 349 263 349 q 314 349 398 320 q 399 319 404 318 q 410 316 420 312 q 495 286 531 286 q 609 286 711 358 z"},"D":{"x_min":0,"x_max":769,"ha":769,"o":"m 23 20 q 80 22 98 37 q 120 55 120 109 l 120 550 q 120 603 97 621 q 76 639 23 640 l 23 659 l 335 659 q 505 659 608 585 q 723 500 723 336 q 723 165 590 69 q 495 0 308 0 l 23 0 z m 225 122 q 225 64 238 50 q 252 36 309 36 q 379 36 435 56 q 491 75 530 112 q 569 150 590 205 q 610 260 610 330 q 610 476 525 552 q 442 623 295 623 q 249 623 236 607 q 225 593 225 544 z"},"^":{"x_min":0,"x_max":952,"ha":952,"o":"m 521 680 l 759 417 l 713 417 l 475 612 l 236 417 l 191 417 l 430 680 z"},"0":{"x_min":0,"x_max":476,"ha":476,"o":"m 120 332 q 120 191 130 141 q 154 12 238 12 q 301 12 330 89 q 352 143 355 245 q 354 217 354 250 q 353 283 353 377 q 353 491 342 543 q 318 648 239 648 q 156 648 131 521 q 120 463 120 332 z m 28 333 q 28 463 69 553 q 123 671 240 671 q 356 671 409 560 q 449 479 449 346 q 449 -11 235 -11 q 28 -11 28 333 z"},"F":{"x_min":0,"x_max":590,"ha":590,"o":"m 23 20 q 80 21 99 37 q 120 53 120 109 l 120 550 q 120 603 98 621 q 78 638 23 638 l 23 659 l 570 659 l 580 503 l 560 503 q 550 570 516 596 q 486 620 416 620 l 276 620 q 248 620 236 610 q 225 600 225 572 l 225 394 q 225 373 230 367 q 235 361 255 361 l 343 361 q 410 361 433 375 q 467 394 467 454 l 487 454 l 487 221 l 467 221 q 463 286 436 306 q 414 322 343 322 l 254 322 q 225 322 225 293 l 225 110 q 225 56 250 37 q 270 22 329 20 l 330 0 l 23 0 z"},"`":{"x_min":0,"x_max":476,"ha":476,"o":"m 293 549 l 159 670 q 134 692 137 712 q 141 740 169 740 q 192 740 216 704 l 324 544 z"},"k":{"x_min":0,"x_max":495,"ha":495,"o":"m 13 18 l 18 18 q 58 18 73 32 q 88 45 88 85 l 88 559 q 88 595 81 605 q 72 622 41 622 l 30 622 l 19 622 l 19 639 q 57 648 95 660 q 133 672 170 688 l 170 270 q 170 258 175 258 q 181 258 190 267 l 294 369 q 318 391 318 406 q 318 429 269 430 l 269 448 l 473 448 l 473 430 l 470 430 q 404 430 321 350 l 247 278 l 402 80 q 450 18 492 18 l 496 18 l 496 0 l 283 0 l 283 18 q 328 19 328 32 q 328 47 309 70 l 188 221 q 180 229 174 229 q 170 228 170 218 l 170 92 q 170 50 180 36 q 193 18 231 18 l 235 18 l 235 0 l 13 0 z"},"u":{"x_min":0,"x_max":523,"ha":523,"o":"m 432 107 q 432 77 440 66 q 449 52 477 52 q 484 52 489 53 l 501 53 l 501 36 q 472 30 434 18 q 396 6 349 -13 l 349 61 q 269 -9 201 -9 q 124 -9 99 43 q 81 80 81 167 l 81 337 q 81 386 72 400 q 60 421 16 421 l 12 421 l 12 439 l 164 448 l 164 165 q 164 46 246 46 q 301 46 349 97 l 349 349 q 349 393 337 407 q 323 421 280 421 l 280 439 l 432 448 z"},"]":{"x_min":0,"x_max":311,"ha":311,"o":"m 235 -226 l 31 -226 l 31 -197 l 61 -197 q 120 -197 137 -182 q 155 -166 155 -109 l 155 578 q 155 633 134 648 q 118 659 59 659 l 31 659 l 31 688 l 235 688 z"},"U":{"x_min":0,"x_max":780,"ha":780,"o":"m 21 659 l 314 659 l 314 640 q 257 638 239 616 q 223 597 223 537 l 223 254 q 223 27 413 27 q 516 27 570 89 q 622 148 622 252 l 622 535 q 622 564 618 584 q 613 603 602 616 q 591 628 572 634 q 553 639 525 639 l 524 659 l 757 659 l 757 640 q 706 637 686 611 q 670 589 670 534 l 670 265 q 670 -17 393 -17 q 248 -17 178 52 q 118 112 118 254 l 118 502 q 118 578 106 602 q 87 639 21 639 z"},"o":{"x_min":0,"x_max":519,"ha":519,"o":"m 251 -12 q 151 -12 90 54 q 30 118 30 221 q 30 326 94 393 q 158 460 263 460 q 365 460 424 395 q 482 333 482 228 q 482 119 421 54 q 359 -12 251 -12 z m 121 254 q 121 168 151 102 q 190 15 266 15 q 391 15 391 188 q 391 276 362 345 q 323 434 245 434 q 177 434 146 374 q 121 328 121 254 z"},"N":{"x_min":0,"x_max":732,"ha":732,"o":"m 161 110 l 161 531 l 606 0 l 626 0 l 626 549 q 626 603 646 620 q 662 634 720 639 l 720 659 l 484 659 l 484 639 q 543 634 559 620 q 579 603 579 549 l 579 190 l 189 659 l 19 659 l 19 639 q 79 633 114 571 l 114 110 q 114 56 94 39 q 78 25 19 20 l 19 0 l 256 0 l 256 20 q 198 25 181 39 q 161 56 161 110 z"},"+":{"x_min":0,"x_max":793,"ha":793,"o":"m 430 568 l 430 316 l 675 316 l 675 251 l 430 251 l 430 0 l 364 0 l 364 251 l 118 251 l 118 316 l 364 316 l 364 568 z"},"G":{"x_min":0,"x_max":771,"ha":771,"o":"m 677 66 q 549 -14 406 -14 q 249 -14 150 73 q 46 165 46 321 q 46 479 148 577 q 248 673 409 673 q 448 673 514 652 q 583 632 602 632 q 626 632 634 668 l 650 669 l 661 465 l 641 465 q 606 553 559 591 q 506 635 418 635 q 292 635 222 542 q 159 459 159 329 q 159 198 224 113 q 295 21 423 21 q 516 21 573 72 l 573 250 q 573 309 553 323 q 539 333 474 336 l 474 357 l 756 357 l 756 336 q 706 334 692 320 q 677 305 677 257 z"},"q":{"x_min":0,"x_max":515,"ha":515,"o":"m 353 330 q 353 430 255 430 q 186 430 150 366 q 122 316 122 240 q 122 165 150 112 q 187 46 254 46 q 283 46 315 61 q 353 81 353 107 z m 274 -208 l 279 -208 q 318 -208 335 -194 q 353 -179 353 -141 l 353 57 q 277 -10 206 -10 q 120 -10 75 60 q 37 121 37 210 q 37 310 93 381 q 155 458 251 458 q 275 458 317 444 q 359 430 369 430 q 377 430 381 432 l 436 462 l 436 -141 q 436 -179 449 -194 q 462 -208 500 -208 l 500 -226 l 274 -226 z"},"d":{"x_min":0,"x_max":521,"ha":521,"o":"m 362 50 l 362 -10 l 375 -6 q 423 11 454 21 q 486 31 500 35 l 500 51 l 483 49 q 457 51 450 64 q 444 73 444 102 l 444 688 q 417 675 379 664 q 341 652 292 641 l 292 627 l 303 627 q 338 627 350 614 q 362 602 362 568 l 362 415 q 315 460 247 460 q 148 460 90 382 q 37 312 37 210 q 37 116 82 58 q 131 -8 223 -8 q 298 -8 362 50 z m 362 330 l 362 82 q 319 45 269 45 q 192 45 152 118 q 121 176 121 260 q 121 329 151 377 q 185 432 251 432 q 293 432 327 401 q 362 369 362 330 z"},"1":{"x_min":0,"x_max":476,"ha":476,"o":"m 86 20 l 97 20 q 167 20 186 36 q 207 54 207 122 l 207 530 q 207 579 189 579 q 180 579 170 576 q 166 574 160 572 q 153 570 145 566 l 85 534 l 74 553 q 164 599 290 676 l 290 122 q 290 55 305 39 q 321 20 385 20 l 405 20 l 405 0 l 86 0 z"},"5":{"x_min":0,"x_max":476,"ha":476,"o":"m 164 659 l 359 659 q 393 659 410 685 l 423 677 l 382 583 l 167 583 l 124 488 q 244 469 316 415 q 404 349 404 237 q 404 125 329 55 q 256 -12 144 -12 q 100 -12 66 0 q 19 17 19 53 q 19 88 60 88 q 90 88 122 64 q 126 59 137 52 q 171 25 199 25 q 265 25 304 79 q 340 128 340 196 q 340 302 243 354 q 169 395 52 402 z"}}}
